<?xml version="1.0" standalone="no"?>
<!DOCTYPE svg PUBLIC "-//W3C//DTD SVG 20010904//EN"
 "http://www.w3.org/TR/2001/REC-SVG-20010904/DTD/svg10.dtd">
<svg version="1.0" xmlns="http://www.w3.org/2000/svg"
 width="500.000000pt" height="500.000000pt" viewBox="0 0 500.000000 500.000000"
 preserveAspectRatio="xMidYMid meet">
<metadata>
Created by potrace 1.11, written by Peter Selinger 2001-2013
</metadata>
<g transform="translate(0.000000,500.000000) scale(0.100000,-0.100000)"
fill="#000000" stroke="none">
<path d="M1350 4191 c-197 -66 -311 -237 -280 -420 54 -321 464 -430 690 -185
165 179 103 468 -125 578 -52 25 -74 30 -160 32 -55 2 -111 0 -125 -5z"/>
<path d="M235 3671 c-81 -21 -110 -65 -109 -165 1 -94 37 -178 106 -242 60
-56 110 -79 254 -114 222 -55 346 -123 494 -270 102 -100 131 -140 289 -385
l32 -50 -7 85 c-12 172 -66 375 -134 511 -144 284 -414 525 -685 608 -76 24
-193 35 -240 22z"/>
<path d="M1236 3332 c107 -246 173 -485 205 -737 18 -148 16 -465 -5 -614 -18
-137 -56 -321 -86 -421 l-19 -65 -98 -34 c-54 -19 -113 -41 -131 -48 l-33 -14
58 -62 c32 -35 67 -80 78 -100 19 -36 19 -38 1 -90 -10 -28 -49 -117 -87 -196
-38 -79 -67 -146 -65 -148 5 -5 166 74 181 88 18 18 27 9 22 -21 -4 -16 -3
-30 1 -30 5 0 47 13 94 29 133 45 352 99 510 126 78 13 145 22 147 19 2 -2 -3
-39 -12 -81 -9 -42 -15 -78 -14 -80 2 -2 26 29 53 67 27 39 56 79 64 90 21 28
152 39 457 40 228 0 300 -4 548 -31 193 -20 477 -84 671 -149 48 -17 91 -30
95 -30 4 0 5 45 2 99 -10 179 30 295 137 401 l60 58 -78 30 c-126 48 -267 91
-436 133 -328 82 -570 109 -966 109 l-280 0 0 68 0 67 -158 91 c-86 51 -181
103 -209 118 -59 29 -65 48 -34 101 14 23 32 34 83 50 l65 20 -49 55 c-182
202 -241 419 -161 587 l16 35 -74 75 c-130 131 -355 307 -517 402 l-52 31 16
-38z m1227 -1791 c49 -12 49 -12 36 -49 -9 -28 -13 -30 -35 -21 -47 17 -84 11
-115 -20 -26 -27 -29 -36 -29 -94 0 -56 4 -70 27 -97 25 -30 30 -32 77 -27 28
2 58 7 67 11 13 6 18 0 21 -24 6 -41 -17 -53 -104 -54 -52 -1 -72 3 -94 20
-43 32 -63 65 -74 122 -20 107 22 198 105 227 47 17 67 18 118 6z m-502 -28
c-24 -44 -121 -113 -121 -86 0 4 11 26 23 48 22 39 26 41 100 54 4 0 3 -7 -2
-16z m914 -67 c18 -8 38 -23 44 -34 12 -23 15 -133 5 -206 -6 -40 -10 -46 -31
-46 -16 0 -27 7 -30 20 -6 24 -11 25 -35 3 -11 -10 -35 -16 -65 -16 -38 0 -50
5 -70 27 -25 30 -29 62 -12 99 15 33 49 47 115 47 54 0 55 0 52 28 -3 26 -5
27 -61 27 -46 0 -60 4 -69 18 -5 11 -6 23 -2 27 23 22 113 25 159 6z m311 -26
c8 0 14 -10 14 -26 l0 -25 26 20 c26 21 94 29 94 12 0 -5 -3 -22 -6 -38 -5
-26 -9 -28 -38 -25 -54 6 -74 -20 -88 -118 l-13 -85 -35 3 c-19 2 -36 5 -38 7
-3 3 23 203 34 258 4 20 10 27 21 23 8 -3 21 -6 29 -6z m-1612 -22 c32 -118
87 -340 84 -343 -1 -2 -19 -6 -38 -10 l-35 -6 -47 180 -46 181 31 9 c45 13 44
13 51 -11z m2070 -62 c46 -19 66 -52 66 -107 0 -79 1 -79 -95 -56 -47 12 -87
18 -91 14 -12 -11 6 -56 27 -67 11 -6 42 -11 69 -12 51 0 58 -7 44 -42 -9 -23
-88 -21 -141 3 -73 34 -96 99 -66 186 30 83 104 116 187 81z"/>
<path d="M2769 1281 c-20 -16 -22 -23 -13 -38 25 -41 94 -17 94 34 0 19 -5 23
-29 23 -16 0 -39 -9 -52 -19z"/>
<path d="M3552 1278 c-21 -21 -13 -36 24 -42 19 -4 42 -10 50 -13 18 -7 20 37
2 55 -15 15 -61 15 -76 0z"/>
<path d="M2233 3138 c-115 -17 -213 -89 -265 -196 -31 -62 -33 -74 -33 -167 0
-110 18 -167 86 -282 95 -158 484 -497 551 -479 39 10 236 163 340 264 203
197 286 353 276 521 -10 160 -123 299 -273 335 -107 26 -232 -8 -312 -86 l-42
-41 -46 42 c-79 73 -179 104 -282 89z m146 -103 c60 -21 102 -56 141 -119 19
-31 37 -56 40 -55 3 0 23 28 45 62 55 85 111 118 208 125 59 3 83 0 118 -15
63 -28 106 -68 137 -127 22 -43 27 -64 27 -131 0 -70 -4 -89 -33 -149 -18 -38
-52 -97 -76 -131 -60 -83 -244 -258 -346 -328 l-83 -56 -59 41 c-236 165 -412
366 -464 526 -20 64 -16 171 10 219 64 126 206 184 335 138z"/>
<path d="M2040 2150 c0 -4 14 -10 31 -14 18 -3 80 -30 138 -59 59 -30 125 -57
147 -60 l39 -7 -55 32 c-116 66 -300 133 -300 108z"/>
<path d="M2210 2126 c41 -18 112 -54 158 -80 61 -34 92 -46 115 -44 30 3 25 7
-64 55 -110 61 -217 103 -257 103 -20 0 -8 -9 48 -34z"/>
<path d="M2890 2139 c-62 -11 -150 -49 -234 -103 -86 -55 -136 -62 -279 -41
-107 16 -120 16 -134 2 -21 -20 -10 -62 21 -82 39 -26 155 -45 278 -45 108 0
121 2 183 30 75 34 79 35 69 19 -4 -6 -36 -25 -73 -41 -65 -30 -67 -30 -206
-25 -157 5 -234 23 -277 65 -16 14 -28 36 -28 49 0 44 -142 115 -235 117 -87
2 -81 -21 20 -74 44 -23 162 -91 262 -151 215 -129 284 -163 321 -156 15 2 74
18 132 35 171 50 329 83 428 89 l92 6 0 136 0 137 -112 17 c-159 25 -167 26
-228 16z"/>
<path d="M1935 2120 c-4 -6 6 -10 23 -10 45 0 131 -29 199 -66 47 -26 67 -32
84 -26 l23 9 -26 17 c-59 38 -193 86 -245 86 -28 0 -55 -4 -58 -10z"/>
</g>
</svg>
